<svg xmlns="http://www.w3.org/2000/svg" xmlns:xlink="http://www.w3.org/1999/xlink" width="960" height="600" viewBox="0 0 960 600"><defs><path id="a" d="M0 0h960v600H0z"/></defs><clipPath id="b"><use xlink:href="#a" overflow="visible"/></clipPath><g clip-path="url(#b)" fill="none" stroke="#D0D2D3" stroke-miterlimit="10"><path d="M576.29 236.315c15.275 1.78 28.622 2.373 33.368 2.966 4.746.6 17.203.15 32.33-1.48s68.667-9.93 68.667-9.93 8.898-.89 12.013-1.705c3.114-.816 5.784-1.41 8.787-3.077 3.003-1.67 31.7-17.13 31.7-17.13s3.67-2.557 4.672-3.892c1-1.334 2.293-4.17-1.49-7.62-3.78-3.446-13.54-10.904-13.54-10.904"/><path d="M713.324 225.526c-11.012-5.895-16.796-8.23-21.69-9.9-4.894-1.668-18.037-5.88-21.134-6.728-15.238-4.17-36.743-8.77-45.344-9.807-16.536 2.08-62.266 9.81-63.104 11.78"/><path d="M628.663 199.593s45.897-11.83 50.068-12.886c4.18-1.057 5.64-3.15 1.97-5.636 0 0-3.86 2.15-12.68 4.23-8.82 2.08-21.8 5.49-29.73 7.34-7.933 1.86-49.146 11.42-56.236 13.5"/><ellipse transform="rotate(-14.373 565.182 257.925)" cx="565.108" cy="257.945" rx="12.247" ry="28.347"/><path d="M576.116 282.216a6.084 6.084 0 0 1-1.958.903c-6.552 1.68-14.753-8.23-18.317-22.14-3.56-13.906-1.14-26.538 5.41-28.218 1.4-.358 2.88-.19 4.36.434"/><ellipse transform="rotate(-14.373 565.183 257.926)" cx="565.108" cy="257.945" rx="13.015" ry="32.488"/><ellipse transform="rotate(-14.373 482.47 248.04)" cx="482.407" cy="248.056" rx="7.665" ry="26.564"/><ellipse transform="rotate(-14.373 565.193 257.93)" cx="565.108" cy="257.945" rx="2.467" ry="4.082"/><ellipse transform="rotate(-14.373 485.07 247.512)" cx="485.025" cy="247.534" rx="1.185" ry="3.647"/><path d="M549.483 219.965s-17.52-1.39-23.358-1.39c-5.84 0-8.342.167-13.57 5.395s-12.42 19.54-12.42 19.54"/><path d="M487.544 236.483c14.682 8.38 32.39 16.962 37.654 18.593 5.265 1.63 2.002.593 4.672 1.483 2.67.89 6.303 1.33 8.083-2.08 1.78-3.41 7.693-20.95 7.693-20.95"/><path d="M556.475 272.814s-33.28-5.652-39.36-6.245c-6.08-.6-9.713 1.11-10.53 1.11-.815 0-5.635-.45-9.713-1.11 0 0-3.13-14.7-7.912-27.04-4.783-12.34-10.122-19.57-14.126-19.79-4.004-.23-4.58 10.8-3.054 17.34m85.49 37.47l-50.17-6.968m7.882-45.845s1.966 2.112 3.746 3.78c1.78 1.67 1.78 2.225 2.336 3.782.556 1.556 3.115 9.51 3.504 10.955.39 1.445 1.224 3.725-1.446 6.62m159.66-62.958c7.48 3.374 37.14 17.982 45.89 36.965"/><path d="M693.6 191.156c5.857 3.337 11.938 6.563 15.608 10.233 3.67 3.67.11 5.89-2.058 6.61-2.17.72-20.425 5.99-20.425 5.99m-7.037-2.268s24.783-6.128 30.766-8.68m-42.44 5.176c10.94-2.945 37.127-10.165 37.127-10.165m21.91 50.01c2.076-.26 14.923-5.416 18.594-6.584 3.67-1.168 15.628-5.84 18.353-7.953 2.724-2.114 6.617.444 4.06 2.724-2.56 2.28-1.002 1.223-5.396 4.394-4.393 3.17-23.414 11.9-27.64 13.57-4.23 1.67-8.9 2.446-13.57 3.67-4.673 1.224-49.72 10.01-61.29 11.46-11.57 1.444-15.24.665-16.46-.78 0 0-.37-.668 6.005-1.707 6.375-1.037 23.505-4.522 31.44-6.376 7.933-1.854 26.03-6.6 29.96-7.712s6.08-1.78 5.262-6.97c-.816-5.19-2.225-8.156-3.04-10.23-.816-2.077-2.3-4.895-8.602-3.857-6.302 1.037-15.87 3.113-24.62 4.448-8.75 1.336-24.172 3.93-28.51 4.877-4.34.945-11.79 1.67-15.405 11.123s-2.8 7.657-4.58 11.96c-1.78 4.3-1.855 7.86-13.274 9.86-11.42 2.004-15.87 2.746-22.246 2.71-6.38-.038-9.27-2.15-9.27-2.15s-5.93-18.354-9.49-26.437c-3.56-8.082-7.046-15.515-11.66-20.3-4.62-4.78-8.03-7.247-12.44-5.54-4.413 1.71-6.34 9.976-5.896 15.945.445 5.97 1.82 17.342 5.683 24.883 0 0-7.76-13.248-7.37-30.504.39-17.256 13.04-13.406 15.016-12.232 2.447 1.453 8.957 6.62 14.13 17.075 5.17 10.453 8.786 22.354 9.62 25.135.834 2.78 1.89 4.638 6.043 5.026 4.154.39 24.916.09 28.4-.28 3.487-.37 7.788-1.852 8.53-5.19.74-3.336 5.71-13.79 7.934-16.09 2.223-2.3 8.822-5.117-1.188-4.3-10.01.815-20.837 1.11-25.212.74"/><path d="M727.784 251.434c-.816-6.442-1.483-13.413-1.854-16.972-.37-3.56 0-6.303 5.34-8.935 5.338-2.633 25.804-13.31 28.474-14.794 2.67-1.483 2.373-1.41 3.485-2.002 1.11-.59 2.54-1.83 2.76.39.22 2.23 1.55 19.64 1.61 21.25-4.12.22-9.18.45-9.18.45s-1.208-14.758-2.04-18.284M586.82 274.54l-2.133 1.595s4.227 2.336 6.785 3.337c2.558 1 5.506.78 8.398.78 2.892 0 21.54-1.225 33.59-3.04 12.05-1.818 54.207-11.183 61.78-14.027m6.12-43.663c3.498-.776 13.41-3.896 16.747-5.524s3.5-2.063 4.11-2.833c0 0 5.05-3.32 10.39-5.437 0 0-3.28-5.728-14.905-13.626-11.623-7.897-21.015-8.62-22.63-9.12-1.618-.502-15.82-2.62-17.59-2.645m-53.108 43.648c-.933-.29-1.916-.35-3.296-.35-3.04 0-9.417-.445-16.314-2.076-6.896-1.64-18.092-5.87-22.543-7.42-3.4-1.19-4.31-1.01-6.98-.72s-3.113.32-3.67.75c-.66.513-.666 1.058.86 1.947 1.53.89 26.41 13.99 30.266 16.46 3.856 2.47 5.566 4.236 8.157 5.14.72.25 3.118.82 4.3.89m-98.76-39.2a35.318 35.318 0 0 1-3.35 2.05c-4.893 2.67-8.38 4.892-11.196 7.12-2.817 2.222-5.486 5.41-6.525 7.783-1.04 2.374-.816 2.3-2.373 5.043-1.555 2.744-4.9 8.62-5.395 15.073m42.365-44.284c0-3.018.334-5.77 1-7.05-7.28 7.176-6.953 7.594-8.942 9.423m49.96 13.536c-6.46.328-22.33-.116-28.26-.86-4.45-.554-8.65-1.256-11.034-3.543"/><path d="M567.28 208.227s-6.896-13.178-9.566-19.185c-2.67-6.006.89-8.12 4.338-10.122 3.448-2.002 24.026-11.68 40.376-15.016 16.35-3.337 31.107-3.745 35.63-3.596 4.523.148 8.824 1.335 10.975 2.373 2.15 1.04 20.244 9.72 29.81 18.91m83.517 20.82c-5.894-4.47-24.35-19.04-36.534-23.71-12.183-4.67-16.076-4.11-19.524-2.89-3.448 1.228-8.573 7.72-8.573 7.72"/><path d="M755.742 197.374c1.65-1.36 4.288-4.154.592-9.28-3.177-4.408-5.578-7.19-12.326-11.12-6.748-3.93-6.785-4.097-12.42-5.877-5.637-1.78-7.892-.968-10.308-.52-2.595.483-6.386 1.447-14.005 4.865m61.608 23.538c.152 2.298-.738 4.56-1.554 5.71-.82 1.148-.19 4.003 0 6.19.18 2.19.89 17.946.89 18.947 2.29.222 4 .297 5.22.667 1.222.37 7.64 2.41 1.963 5.858-5.673 3.448-8.787 5.08-14.497 7.34a119.212 119.212 0 0 1-10.826 3.676M604.71 233.94c5.155.373 19.06-.517 21.617-.628 2.558-.11 3.393-1.89 2.836-3.393-.556-1.51-2.91-5.09-4.79-5.94"/><path d="M735.366 172.366c-.738.585-.368.956 1.338 1.994s7.678 4.824 9.417 7.786c2.75 4.672 2.18 8.074 2.13 9.747m-50.52 26.037c-5.11.366-16.25 2.146-20.24 3.814-5.33-1.112-43.48-7.373-52.49-7.746-9.01-.374-3.17-.262-6.506-.262s-9.232-.556-12.847-3.448c-3.616-2.892-6.754-7.143-6.754-7.143m-51.435 20.842c3.02-5.913 5.133-8.63 7.47-10.775 2.335-2.145 8.007-2.48 14.125-2.812 6.117-.334 17.017-1 20.576-1 3.56 0 6.23.22 11.46 2s20.317 7.898 29.883 16.203c9.564 8.305 7.32 6.43 7.32 6.43m-77.4-28.36c-3.56-7.76-5.387-12.738-8.007-18.113-2.894-5.932-6.527-6.822-10.31-5.858-3.694.942-9.982 4.15-12.495 6.994m1.91 5.208c1.847-4.217 3.947-8.2 5.37-10.18"/><path d="M645.328 161.384c-7.544-2.447-10.955-3.41-20.298-4.004-9.343-.593-21.755 1.16-27.956 2.41-4.348.877-19.91 4.227-23.247 5.117-3.337.89-12.124 3.28-25.027 8.453-8.133 3.26-14.46 8.676-17.893 11.79"/><ellipse transform="rotate(-14.373 482.468 248.04)" cx="482.407" cy="248.056" rx="6.56" ry="22.314"/><path d="M572.38 289.583c15.895-2.137 17.5-2.584 20.467-3.4 2.966-.816 3.782-4.555 4.078-5.91m-91.335-12.647c-.205.942-.72 3.304-2.78 3.87-2.063.568-3.046.848-14.227 2.365m184-11.48c-2.71-1.53-3.488-2.2-4.1-5.04-.61-2.83-3.392-16.79-3.392-16.79s-7.23 1.28-8.5 1.67c-1.28.39-2.39 1.556-3.06 3.614-.665 2.058-3 12.625-3.335 13.96-.334 1.334.31 7.01 5.398 6.02m-138.882-67.14c-4.33 1.286-9.172 2.62-13.95 3.574-5.19 1.038-9.343 1.705-12.46 1.928-3.112.225-10.38.744-13.123 2.078-2.746 1.335-7.195 5.265-7.046 14.83.15 9.567 1.966 19.273 3.95 24.987"/><path d="M520.528 206.55c-.995 0-1.536-.09-1.926-.545-.703-.82-2.113-3.17-2.336-5.34-.222-2.168 1.724-3.92 4.8-5.616 2.645-1.46 5.488-2.56 7.268-2.9 1.78-.336 2.947.554 3.652 1.745 0 0 2.698 3.425 1.288 7.06"/><path d="M563.928 208.18c-2.346-2.38-5.06-4.232-11.18-5.51-6.117-1.28-14.626-1.948-17.35-1.836-2.726.11-4.895.39-7.287.89-2.39.5-5.02.99-7.56 1.835-2 .66-1.09 3.4.95 3.08s9.99-2.57 11.03-3.05c1.04-.48 1.03-1.26 1.31-1.54.286-.28 5.006-.168 7.846.39 2.84.554 14.238 3.294 18.357 5.78m192.673 6.232c1.366 5.45 3.31 13.067 4.2 16.293.89 3.226 1.32 4.357 2.607 5.21m-9.23-20.236s1.73 8.574 2.01 13.08c.275 4.504.313 9.105-.43 10.392m-80.495-63.653c6.75-4.82 14.386-10.827 15.944-12.088 3.11-1.188 4-1.336 4-1.336l-17.72 15.05"/><path d="M683.43 166.52c-1.266-1.28-2.415-3.8-2.712-5.915-.297-2.113-.035-3.727.148-4.264.26-.76.76-1.96 3.782-1.44 2.367.41 5.97 1.89 7.415 2.89 1.446 1 2.632 2.86-.74 4.34M556.85 244.97c.647-4.53 2.387-7.694 5.04-8.373a4.1 4.1 0 0 1 .425-.086m-2.15 30.28c-2.02-3.91-3.177-8.84-3.067-11.06m17.31 23.003a4.45 4.45 0 0 1-1.53.734c-2.112.54-4.473-.576-6.733-2.9m-7.09-29.96c.402-3.384 1.54-5.694 3.328-6.153.302-.077.613-.1.93-.07m-1.713 23.73c-1.074-1.67-2.546-5.98-2.148-8.243m13.085 19.423a2.78 2.78 0 0 1-1.08.557c-1.583.405-3.418-.708-5.193-2.894m-5.384-25.002c.344-1.62.987-2.68 1.91-2.92.526-.13 1.1.01 1.694.39m-1.628 16.66c-1.254-1.42-1.896-4.534-1.847-6.117m9.32 15.273a1.69 1.69 0 0 1-.72.396c-.98.247-2.11-.45-3.25-1.835m-75.938-3.68c-.487.96-1.12 1.58-1.893 1.78-3.56.91-8.766-7.41-11.63-18.585-2.866-11.18-2.304-20.977 1.255-21.89.55-.14 1.14-.06 1.757.217"/><path d="M477.317 235.732c.25-1.957.843-3.22 1.772-3.46.37-.094.77-.02 1.19.204m-.16 21.002c-.51-1.445-.99-3-1.408-4.635a56.28 56.28 0 0 1-.64-2.772m10.18 15.82c-.31.72-.725 1.178-1.246 1.31-.724.187-1.57-.273-2.457-1.24m-5.154-23.382c.174-1.47.603-2.42 1.285-2.595.27-.07.566-.012.877.158m.073 16.007a43.167 43.167 0 0 1-1.614-5.78m7.522 11.847c-.224.537-.526.877-.907.974-.54.137-1.17-.224-1.836-.977m-3.155-16.58c.15-.61.404-1 .755-1.09.174-.046.363-.014.56.086m.112 10.26a22.997 22.997 0 0 1-.912-2.82 24.223 24.223 0 0 1-.322-1.43m4.743 7.317c-.148.33-.344.536-.59.6-.28.07-.596-.055-.93-.345"/><g stroke-width=".5"><path d="M1214.62.578c-.607.126-450.05 114.553-476.062 121.018-23.87 5.932-39.153 16.017 5.784 13.348 44.203-2.626 230.04-36.678 264.472-42.025.572-.09 699.845-117.41 700.332-117.48M720.11 160.07c.555 3.287 8.977 6.44 29.98 8.83 36.97 4.206 203.83-.875 262.03-5.183 7.46-.55 881.17-56.304 884.558-56.81M715.535 131.94l4.546 28.14M1045.16 9.89c-3.233.892-6.57 3.037-9.057 5.183-1.842 1.59-4.623 3.05-6.21 4.805-.928 1.024-1.256 2.535-2.408 3.566-.965.865-2.277 1.208-3.13 2.24-.8.972-.97 2.053-1.925 2.944-1.042.973-2.4 1.378-3.523 2.213-1.747 1.3-3.168 2.9-4.744 4.48-2.668 2.68-4.955 2.61-8.5 3.52-2.347.6-4.49 1.837-6.688 2.86-2.738 1.28-3.437 2.527-5.38 4.64-1.498 1.63-2.41 1.5-4.487 1.6-4.14.194-7.708-1-11.7-.785-3.518.187-9.25 1.12-12.555 2.93-3.354 1.838-5.853 4.59-9.188 6.388-3.695 1.99-6.43 2.31-10.764 2.044-2.4-.15-2.48-.912-4.48-1.875-.81-.393-1.91-.343-2.75-.75-.52-.254-1.19-1.085-1.75-1.242-4.7-1.294-4.735 4.408-7.55 6.2-1.486.946-4.118.17-5.507-.395-2.54-1.032-.95-.89-2.37-2.867-.89-1.24-3.64-2.78-5.074-3.385-2.286-.957-3.47-.155-5.43 1.158-2.04-1.41-4.875-2.707-7.065-3.71-3.005-1.377-5.866.303-8.864-.355-2.495-.55-2.812-3.556-5.15-4.112-1.63-.388-3.196 1.232-4.825 1.383-6.3.58-8.81-6.682-15.99-4.82a150.142 150.142 0 0 0-24.04 8.444c-5.593 2.524-7.188 1.25-13.5 1.17-5.876-.07-11.353 2.345-16.736 3.318-2.75.498-12.81-1.457-14.514.155-2.606 2.473 1.52 4.653 1.085 7.206-.454 2.656-1.947 3.13-3.39 5.16-3.94 5.54-6.724 4.232-11.843 6.84-3.92 1.992-7.203 5.392-10.646 8.02-1.28.974-3.073.19-4.23 1.14-1.032.846.247 2.77-.603 3.4-1.8 1.33-3.37 1.72-5.39 2.62-2.39 1.064-5.34 1.3-7.678 2.33-1.797.79-3.686 3.27-4.957 3.72-5.628 1.98-12.168-1.05-17.882-1.865-5.26-.753-12.5.605-17.195-1.89a30.43 30.43 0 0 1-.54.54c1.055 1.98 1.385 4.31.953 6.586-7.18 1.9-11.424-1.47-15.883-5.07-2.26-1.828-8.697-7.48-11.263-7.553-6.855-.194-1.942 5.82-4.22 10.07-2.29 4.273-9.33 2.87-9.592 8.71-.03-.252.195.236.206.32-.255.038-.182-.39-.19-.424-.45.24-5.125 1.594-7.023 1.52-2.765-.106-5.59-2.173-9.322-2.146-3.72.026-3.702 2.09-7.524 1.532-2.534-.37-2.53-3.52-6.17-2.9-.263 4.204-.388 7.364-3.49 10.204-3.336 3.053-7.18 1.974-11.228 4.51 1.41 1.744 1.016 3.427 1.613 5.253-3.43.794-7.33.39-10.54.47-3.486-5.414-10.69-3.81-15.25-8.526-2.22-2.3-1.254-6.08-6.122-6.54-3.848-.364-7.002 1.726-6.157 5.99-7.693-4.003-2.58 9.633-6.57 13.08.016-.007.04-.04.034-.037-.015.01.03-.03.03-.03-7.12 4.92-10.884 13.866-21.772 12.36-2.836 3.115-9.214 6.336-12.34 1.614.003 0 .058.082.06.083-2.36-.64-5.43-.31-8.03-.048-.177.17-.363.332-.557.483 2.277 3.92 3.417 5.364-.1 8.556-2.96 2.685-7.684 2.86-10.074-.667 5.67-7.213-1.36-13.694-8.61-10.31-2.124-1.24-4.14-3.38-5.905-4.985.236.857.083 2.2.32 3.186-9.156 4.32-15.988-4.693-20.553-11.794-1.724-.19-3.773.33-5.124 1.386 5.038 6.31-.752 11.05-.718 16.83-2.378 1.33-5.312 2.065-7.79 2.875-.35 2.02-.255 5.26.29 7.39-4.816.364-15.133 2.788-19.265 1.486-4.814-1.517-6.196-7.54-12.56-4.607 1.048 5.755-8 3.42-12.012 5.39.603 8.7-5.786 5.972-9.858 11.193.73.482 1.284 1.25 1.797 1.665-2.92.257-6.2 2.056-8.87 2.173-2.83.127-6.054-2.27-8.38-1.695-3.25.8-3.556 4.432-6.138 5.72-2.587 1.287-6.77.876-9.51 1.32-6.337 1.022-11.07 1.202-17.87 1.48-5.933.244-11.626 3.035-17.4 2.98a.357.357 0 0 1 .082.057c-3.017-5.45-11.31-1.144-14.143-6.405.333-.15 1.41-1.023 1.9-1.333-2.945-.432-4.6-4.844-7.63-4.486-2.976.353-2.74 4.615-3.85 6.524-.89 1.527-.068 3.726-2.485 4.533-2.755.92-1.74-2.484-3.84-2.73-3.016-.353-5.02-2.14-6.727 1.203 5.538 6.024 3.19 10.416-5.023 9.657-2.49 1.566-1.6 4.162-2.77 5.65-2.545 3.23-1.168 2.88-6.707 2.892-5.467.014-11.06-1.428-16.13-1.887-4.167-.378-11.197.37-14.064 3.373-.992 1.04-.454 3.424-1.452 5.17-1.51 2.647-4.69 2.07-4.64 6.057-9.58 2.5-20.594-2.613-27.11 3.634-2.986 2.86-2.934 5.183-8.195 7.124-4.72 1.74-7.13 2.606-11.676.005.03.046.046.022.09.047-.314.08-.616.038-.906-.126.088-.3-.372-1.01-.514-1.22.395-.637.707-1.344 1.1-2-2.246-3.44-6.816-3.67-9.897-5.527-6.85-4.127-1.658-3.65-2.854-9.156-1.593-7.33-7.187-2.444-11.377-2.64-2.63-.123-10.86-7.095-10.744.52-8.447 1.17-4.503 5.694-1.983 10.64-2.21 1.046-4.05 2.05-6.478 2.938-2.876 10.585-5.48 13.92-17.14 13.854-.082.58-.592 1.863-.62 2.016-2.98 2.914-6.75 3.54-10.783 4.036-.01.022.09-.01.084-.01-5.03 8.743-8.48 13.533-18.37 17.06-7.054-3.55-15.463-5.47-22.038-7.686-3.988-1.345-8.206-4.675-12.696-4.057-3.645.5-6.346 4.045-9.83 4.85-4.31.993-9.046-2.49-13.36.69-2.377 1.746-1.323 3.726-2.803 5.17-1.158 1.13-3.168.955-3.986 1.99-3.55 4.473-2.873 6.034-8.69 7.354-3.57.81-7.406.62-10.645 1.665.193.036-.944.05-.736 0-5.79-2.71-21.47 2.22-22.087-6.24-4.756-1.77-11.798 1.17-10.68 7.146-5.34.926-5.14 6.96-7.927 9.962-3.062 3.3-7.792 4.535-11.996 5.45-4.8 1.043-7.99-.648-11.193 2.854-1.62 1.77.867 2.96-1.5 5.202-.52.49-3.956 1.66-4.806 1.84-3.094.647-8.024 1.32-11.58.646-3.54-.67-6.07-3.925-9.47-2.985-2.832.784-4.39 6.856-8.84 6.54-5.054-.357-5.25-5.85-11.91-3.27 3.365 7.97-10.406 9.086-8.38 15.234-1.73 2.337-5.055 7.305-7.093 8.526-5.388 3.23-3.974-1.037-8.623-.533-6.758.73-1.445 5.55-6.153 8.59-1.16.75-9.06-.584-10.962-.814a106.35 106.35 0 0 0-2.253 6.254m814.02-190.46a81340.93 81340.93 0 0 0-83.933 21.58m135.67 38.3c110.22.283 248.1-1.98 329.08-4.25.472-.012 1088.85-8.425 1089.32-8.44M716.762 139.54c-9.79 3.41-40.726 12.738-68.48 22.69M527.81 188.26c-91.093 25.685-186.33 54.67-213.26 69.685-72.227 40.278-59.893 118.945-4.894 414.945"/><path d="M1252.66-5.873c-.223.054-304.557 76.092-304.78 76.146-87.578 21.164-181.85 45.857-206.736 52.042-22.746 5.653-37.373 12.963 5.45 10.42 42.496-2.525 221.65-38.912 252.147-43.61.24-.037 782.94-136.12 783.15-136.152"/><path d="M781.173 128.46C790.1 123.75 886.93 98.705 949.45 83c106.4-26.733 338.826-90.768 340.806-91.21M471.293 213.235c-22.715 8.462-40.12 16.308-47.933 22.73-16.218 13.327-17.155 29.958 5.242 48.963C530.155 371.102 835.654 457.956 959.682 502"/><path d="M474.955 207.726c-12.162 3.695-20.588 6.302-23.592 7.303-33.282 11.09-107.892 25.8-66.07 97.88C421.9 376 545.173 502.09 575.34 532.55c4.296 4.34 137.984 131.673 137.984 131.673m3.136-526.27c-17.46 4.474-44.09 12.174-76.053 21.38M767.994 224.1c332.128 13.887 1179.926 30.09 1354.15 34.498"/></g><path stroke-width=".5" d="M490.43 273.608s474.727 100.463 550.227 95.463m-447.234-83.09c149.142 24.38 435.95 69.58 491.234 65.92m-581.125-80.82s21.576 3.662 56.826 9.485m174.656-26.336s340.915 40.36 416.415 35.36m-440.64-29.4s340.912 40.36 416.412 35.36M484.55 271.47c-48.233-14.27-29.025-37.15-14.436-43.577m9.903 36.306c-17.615-7-30.53-19.307-9.418-35.188"/></g></svg>