<svg xmlns="http://www.w3.org/2000/svg" viewBox="0 0 338.537 73.458"><path d="M61.99 10.068c.35-.74.34-.744 2.206-5.228-4.465-.537-6.893-.925-10.805-.85A36.56 36.56 0 0 0 36.73 0C16.442 0 0 16.444 0 36.73c0 20.284 16.443 36.728 36.73 36.728 20.284 0 36.728-16.444 36.728-36.73 0-10.498-4.406-19.966-11.47-26.66" fill="#FFF"/><path d="M59.32 15.162a.343.343 0 0 0-.51.016 23.263 23.263 0 0 1-5.23 4.604 23.68 23.68 0 0 1-12.845 3.772c-8.622 0-13.446-4.186-17.484-7.28a.342.342 0 0 1 .01-.545c6.13-4.62 11.23-7.64 16.31-9.45a.342.342 0 0 0-.083-.668 31.317 31.317 0 0 0-2.75-.123c-17.254 0-31.24 13.99-31.24 31.24 0 9.517 4.255 18.04 10.966 23.767a.34.34 0 0 0 .32.068.334.334 0 0 0 .23-.226l1.276-4.068a.342.342 0 0 1 .4-.23c16.714 3.65 23.877-5.43 22.7-11.01-1.008-4.767-8.816-9.005-20.343-2.553a.35.35 0 0 1-.287.02.367.367 0 0 1-.094-.054l-.036-.03a.34.34 0 0 1-.126-.334l3.91-19.87a.34.34 0 0 1 .2-.25.34.34 0 0 1 .317.028c1.13.72 4.37 2.76 7.9 4.9a.34.34 0 0 1 .16.34c-.12.868-.554 4-.79 5.278a.337.337 0 0 0 .105.314.34.34 0 0 0 .32.08c19.215-5.184 23.228 6.92 22.74 12.68-1.108 13.07-15.483 19.983-28.32 20.155a.343.343 0 0 0-.103.667 31.22 31.22 0 0 0 9.8 1.57c17.25 0 31.234-13.983 31.234-31.234 0-8.366-3.29-15.96-8.645-21.57" fill="#cd3128"/><path d="M28.69 15.995c6.258-.558 12.61-1.104 18.456-2.87 4.278-1.295 8.165-3.542 12.14-5.43-10.545-1.24-21.537 1.433-30.595 8.3" fill="#60ae54"/><path d="M28.687 16c10.384 7.86 25.552 3.868 30.615-8.304-.005 0-.01 0-.016-.002-9.403 4.47-19.76 7.334-30.595 8.3V16" fill="#88bc50"/><path d="M187.15 28.69c-3.943 0-6.316 2.568-8.266 5.614h-.092c0-3.188-1.283-5.614-4.894-5.614-4.272 0-6.6 3.235-8.123 5.9h-.09c.25-.98.544-2.423.756-3.656a1.392 1.392 0 0 0-1.37-1.625h-4.33l-3.9 21.65a1.286 1.286 0 0 0 1.27 1.51h4.59l.334-1.904c2.278-12.894 5.414-16.463 7.88-16.463 1.8 0 1.994 1.71 1.57 4l-2.35 12.673a1.44 1.44 0 0 0 1.41 1.697h4.45l.33-1.905c2.24-12.8 5.37-16.463 7.937-16.463 1.71 0 1.946 1.573 1.518 3.998l-2.35 12.945a1.206 1.206 0 0 0 1.183 1.427h4.635l2.61-14.7a16.01 16.01 0 0 0 .335-3.19c0-3.95-1.85-5.9-5.03-5.9zm25.81-4.895l2.007.35c.588.07 1.083.156 1.28-.77l.71-2.508c.177-.77-.065-.95-.804-1.07l-1.873-.334c-.42-.04-1.06-.206-1.28.72l-.73 2.573c-.152.6.017.94.69 1.04zm-58.997 5.514h-8.842c-6.55 0-10.92 2.8-10.92 8.04 0 2.75 1.95 4.52 3.9 4.76v.04c-.76.29-1.612 1.24-2.52 2.33-1.61 2.05-2.75 3.38-3.79 3.38a.38.38 0 0 0-.38.33l-.528 3.653c-.026.16.02.32.128.44.1.124.257.19.413.19h1.885c2.993 0 4.086-1.188 7.03-4.904 2.28-2.993 3.135-3.946 4.51-3.946h1l-1.453 8.207a.54.54 0 0 0 .12.446c.107.13.257.2.42.2h5.11a.55.55 0 0 0 .54-.45l3.935-22.074a.55.55 0 0 0-.542-.65zm-7.37 10.08h-3.23c-1.995 0-2.94-.67-2.94-2.05 0-2.28 1.423-3.42 4.176-3.42h2.99l-1 5.47zm-8.03-20.8c24.58-1.02 63.46 3.54 63.46 3.54.497.065.938-.147 1.072-.58l.398-1.23.01-.013.67-2.09a.474.474 0 0 0-.048-.394.477.477 0 0 0-.33-.212c-4.82-.64-40.307-5.253-66.106-4.6-24.27.62-44.67 5.42-50.11 6.857a1.132 1.132 0 0 0-.83.89l-.59 3.13a.45.45 0 0 0 .14.428.46.46 0 0 0 .42.125c4.41-.97 10.52-2.01 18.61-3.02l-5.39 29.95c-.138.526-.138 1.12.81 1.12h5.24c.346 0 .796-.065.896-.91l5.075-29.18c.015-.04.348-1.613 2.056-2.004l.03-.004c2.187-.22 5.966-.463 8.28-.653l-5.613 31.715c-.203 1.08.36 1.04.765 1.035h5.48c.457-.013 1.07-.074 1.257-1.096l5.275-30.38h.012s.333-1.583 2.027-1.977c2.64-.175 4.347-.327 7.03-.444zm67.95 4.29l2.252.3c.608.07 1.12.17 1.33-.79l.74-2.62c.18-.82-.065-1.01-.84-1.14l-2.11-.28c-.43-.047-1.093-.2-1.327.75l-.765 2.676c-.155.64.018.98.72 1.103zm8.84 11.8c0-3.807-2.654-6-7.072-6-7.41 0-13.3 6.424-13.3 15.083 0 5.47 3.04 9.277 8.88 9.277 4.57 0 7.46-1.806 9.31-3.33l-2.42-4.093c-1.47 1.24-3.46 2.43-5.89 2.43-2.56 0-3.51-1.573-3.65-4.237 7.697-.852 14.15-3.473 14.15-9.13zm-13.818 5.18c.81-3.373 2.802-6.375 5.7-6.375 1.473 0 2.182.623 2.182 1.905 0 2.427-3.182 3.998-7.882 4.47zm32.15-11.18c-4.038 0-6.174 2.76-8.077 6.04h-.095c.224-.84.414-1.62.588-2.42a2.49 2.49 0 0 0-.49-2.08 2.48 2.48 0 0 0-1.92-.92h-2.96l-6.13 33.55h3.462a3.198 3.198 0 0 0 3.144-2.63l1.37-7.505c.477.143 1.525.333 3.23.333 8.027 0 13.825-6.52 13.825-16.51 0-4.76-2.28-7.85-5.94-7.85zm-7.885 19.8c-1.33 0-1.995-.196-2.375-.287l.238-1.29c1.755-8.516 4.747-12.847 7.458-12.847 1.47 0 2.09 1.382 2.09 3.474 0 6.804-3.32 10.947-7.41 10.947zm104.66-19.79c-8.594 0-14.578 6.804-14.578 16.75 0 4.76 2.42 7.615 5.984 7.615 3.753 0 6.03-2.807 7.838-6.186h.095c-.24 1.01-.43 2.26-.56 3.49a1.898 1.898 0 0 0 .47 1.49c.36.4.88.63 1.42.63h3.98c.045-1.71.33-5.52 1.47-11.9l1.95-10.56c-1.095-.48-3.94-1.34-8.078-1.34zm1.095 6.185c-1.57 8.662-4.61 12.846-7.126 12.846-1.48 0-2.14-1.13-2.14-3.33 0-6.52 3.42-11.04 7.22-11.04.9 0 1.75.15 2.23.29l-.19 1.24zm-23.793 8.473c-.662-1.382-1.327-2.24-1.993-2.9l10.16-11.14h-5.56c-.96 0-1.88.422-2.51 1.15l-7.13 8.23h-1.288l1.383-7.577a1.536 1.536 0 0 0-.33-1.25 1.52 1.52 0 0 0-1.166-.55h-4.443l-4.134 23.17h4.48a2.08 2.08 0 0 0 2.05-1.71l1.406-7.843h.707c1.38 0 2.19 1.473 3.66 4.57 1.66 3.613 2.516 4.99 5.51 4.99h2.42l.856-4.613h-.525c-1.237 0-2.135-1.425-3.56-4.517zm-25.12-12.61c-.946 5.9-3.99 9.8-6.885 9.8-1.52 0-2.043-1.096-1.567-3.66l.744-4.557a2.61 2.61 0 0 0-.585-2.1 2.582 2.582 0 0 0-1.98-.91h-3.08l-1.427 7.86a16.035 16.035 0 0 0-.285 2.857c0 3.85 1.855 5.995 5.127 5.995 4.134 0 6.79-2.712 8.504-5.62h.095c-.715 3.526-1.57 8.76-1.95 12.086h5.983c.1-1.705.48-5.513 1.614-11.893L289 29.315h-6.125l-.238 1.43zm-27.636-2.048c-7.507 0-13.108 6.662-13.108 14.702 0 5.28 3.275 9.658 9.26 9.658 7.696 0 13.014-6.328 13.014-14.7 0-5.518-3.325-9.66-9.166-9.66zm-3.28 19.6c-2.372 0-3.56-1.996-3.56-5.04 0-4.28 2.42-9.8 6.315-9.8 2.38 0 3.52 1.808 3.52 4.995 0 4.23-2.18 9.845-6.27 9.845z" fill="#FFF"/></svg>