<?xml version="1.0" encoding="utf-8"?>
<!-- Generator: Adobe Illustrator 17.0.1, SVG Export Plug-In . SVG Version: 6.00 Build 0)  -->
<!DOCTYPE svg PUBLIC "-//W3C//DTD SVG 1.1//EN" "http://www.w3.org/Graphics/SVG/1.1/DTD/svg11.dtd">
<svg version="1.1" id="Layer_1" xmlns="http://www.w3.org/2000/svg" xmlns:xlink="http://www.w3.org/1999/xlink" x="0px" y="0px"
	 width="960px" height="600px" viewBox="0 0 960 600" enable-background="new 0 0 960 600" xml:space="preserve">
<g>
	<defs>
		<rect id="SVGID_1_" width="960" height="600"/>
	</defs>
	<clipPath id="SVGID_2_">
		<use xlink:href="#SVGID_1_"  overflow="visible"/>
	</clipPath>
	<g clip-path="url(#SVGID_2_)">
		<g>
			<path fill="none" stroke="#D0D2D3" stroke-miterlimit="10" d="M576.289,236.315c15.276,1.78,28.623,2.373,33.369,2.966
				c4.746,0.593,17.203,0.148,32.331-1.483s68.666-9.936,68.666-9.936s8.898-0.89,12.013-1.706c3.114-0.816,5.784-1.409,8.787-3.077
				c3.003-1.668,31.7-17.129,31.7-17.129s3.67-2.558,4.672-3.893c1.001-1.335,2.293-4.171-1.489-7.619
				c-3.782-3.448-13.54-10.906-13.54-10.906"/>
			<path fill="none" stroke="#D0D2D3" stroke-miterlimit="10" d="M713.324,225.526c-11.012-5.895-16.796-8.231-21.69-9.899
				c-4.894-1.669-18.037-5.882-21.134-6.729c-15.238-4.171-36.743-8.769-45.344-9.807c-16.536,2.076-62.266,9.807-63.104,11.772"/>
			<path fill="none" stroke="#D0D2D3" stroke-miterlimit="10" d="M628.663,199.593c0,0,45.897-11.829,50.068-12.886
				c4.171-1.057,5.636-3.151,1.965-5.636c0,0-3.862,2.15-12.683,4.227c-8.821,2.076-21.798,5.487-29.732,7.341
				c-7.934,1.854-49.147,11.42-56.237,13.496"/>
			
				<ellipse transform="matrix(0.9687 -0.2483 0.2483 0.9687 -46.3527 148.4077)" fill="none" stroke="#D0D2D3" stroke-miterlimit="10" cx="565.108" cy="257.945" rx="12.247" ry="28.347"/>
			<path fill="none" stroke="#D0D2D3" stroke-miterlimit="10" d="M576.116,282.216c-0.604,0.418-1.257,0.723-1.958,0.903
				c-6.552,1.68-14.753-8.229-18.317-22.133c-3.564-13.903-1.142-26.535,5.41-28.215c1.398-0.358,2.871-0.189,4.358,0.434"/>
			
				<ellipse transform="matrix(0.9687 -0.2483 0.2483 0.9687 -46.3527 148.4079)" fill="none" stroke="#D0D2D3" stroke-miterlimit="10" cx="565.108" cy="257.945" rx="13.015" ry="32.488"/>
			
				<ellipse transform="matrix(0.9687 -0.2483 0.2483 0.9687 -46.4874 127.5607)" fill="none" stroke="#D0D2D3" stroke-miterlimit="10" cx="482.407" cy="248.056" rx="7.665" ry="26.564"/>
			
				<ellipse transform="matrix(0.9687 -0.2483 0.2483 0.9687 -46.3532 148.4106)" fill="none" stroke="#D0D2D3" stroke-miterlimit="10" cx="565.108" cy="257.945" rx="2.467" ry="4.082"/>
			
				<ellipse transform="matrix(0.9687 -0.2483 0.2483 0.9687 -46.2746 128.19)" fill="none" stroke="#D0D2D3" stroke-miterlimit="10" cx="485.025" cy="247.534" rx="1.185" ry="3.647"/>
			<path fill="none" stroke="#D0D2D3" stroke-miterlimit="10" d="M549.483,219.965c0,0-17.519-1.39-23.358-1.39
				c-5.84,0-8.342,0.167-13.57,5.395c-5.228,5.228-12.421,19.539-12.421,19.539"/>
			<path fill="none" stroke="#D0D2D3" stroke-miterlimit="10" d="M487.544,236.483c14.682,8.379,32.389,16.962,37.654,18.593
				c5.265,1.631,2.002,0.593,4.672,1.483c2.669,0.89,6.303,1.335,8.083-2.076c1.78-3.411,7.693-20.948,7.693-20.948"/>
			<path fill="none" stroke="#D0D2D3" stroke-miterlimit="10" d="M556.475,272.814c0,0-33.279-5.652-39.359-6.245
				c-6.081-0.593-9.714,1.112-10.53,1.112c-0.816,0-5.636-0.445-9.714-1.112c0,0-3.129-14.7-7.912-27.037
				c-4.783-12.338-10.122-19.568-14.126-19.79c-4.004-0.223-4.58,10.806-3.054,17.34"/>
			<line fill="none" stroke="#D0D2D3" stroke-miterlimit="10" x1="557.269" y1="274.557" x2="507.1" y2="267.59"/>
			<path fill="none" stroke="#D0D2D3" stroke-miterlimit="10" d="M514.982,221.746c0,0,1.966,2.112,3.746,3.78
				c1.78,1.668,1.78,2.225,2.336,3.782c0.556,1.557,3.115,9.51,3.504,10.956c0.389,1.446,1.224,3.726-1.446,6.618"/>
			<path fill="none" stroke="#D0D2D3" stroke-miterlimit="10" d="M682.783,183.926c7.479,3.374,37.14,17.982,45.89,36.965"/>
			<path fill="none" stroke="#D0D2D3" stroke-miterlimit="10" d="M693.599,191.156c5.858,3.337,11.939,6.563,15.609,10.233
				c3.671,3.671,0.111,5.895-2.058,6.618c-2.169,0.723-20.425,5.991-20.425,5.991"/>
			<path fill="none" stroke="#D0D2D3" stroke-miterlimit="10" d="M679.688,211.729c0,0,24.783-6.126,30.766-8.678"/>
			<path fill="none" stroke="#D0D2D3" stroke-miterlimit="10" d="M668.013,208.227c10.941-2.945,37.128-10.165,37.128-10.165"/>
			<path fill="none" stroke="#D0D2D3" stroke-miterlimit="10" d="M727.042,248.069c2.076-0.26,14.923-5.413,18.594-6.581
				c3.671-1.168,15.628-5.84,18.353-7.953c2.725-2.113,6.618,0.445,4.06,2.725c-2.558,2.28-1.001,1.223-5.395,4.394
				c-4.393,3.17-23.414,11.902-27.641,13.57c-4.227,1.668-8.898,2.447-13.57,3.671c-4.672,1.224-49.72,10.011-61.287,11.457
				c-11.568,1.446-15.239,0.667-16.462-0.779c0,0-0.371-0.667,6.006-1.706c6.377-1.038,23.507-4.523,31.441-6.377
				c7.934-1.854,26.028-6.6,29.958-7.712s6.081-1.78,5.265-6.97c-0.816-5.191-2.225-8.157-3.04-10.233
				c-0.816-2.076-2.299-4.894-8.602-3.856c-6.303,1.038-15.869,3.114-24.619,4.449c-8.75,1.335-24.174,3.93-28.512,4.876
				c-4.338,0.945-11.79,1.668-15.405,11.123c-3.615,9.454-2.799,7.656-4.579,11.957c-1.78,4.301-1.854,7.86-13.273,9.862
				c-11.419,2.002-15.869,2.744-22.246,2.707c-6.377-0.037-9.269-2.15-9.269-2.15s-5.932-18.353-9.492-26.436
				c-3.559-8.083-7.044-15.516-11.66-20.299c-4.616-4.783-8.027-7.249-12.439-5.543c-4.412,1.706-6.34,9.974-5.895,15.943
				c0.445,5.969,1.82,17.342,5.683,24.883c0,0-7.76-13.248-7.37-30.504c0.389-17.256,13.039-13.406,15.016-12.232
				c2.444,1.452,8.954,6.618,14.126,17.074c5.172,10.456,8.787,22.357,9.621,25.138c0.834,2.781,1.891,4.637,6.043,5.025
				c4.153,0.388,24.915,0.091,28.401-0.279c3.485-0.371,7.786-1.854,8.528-5.191c0.741-3.337,5.71-13.792,7.934-16.091
				c2.225-2.299,8.824-5.117-1.186-4.301c-10.011,0.816-20.837,1.112-25.212,0.741"/>
			<path fill="none" stroke="#D0D2D3" stroke-miterlimit="10" d="M727.784,251.434c-0.816-6.442-1.483-13.413-1.854-16.972
				c-0.371-3.559,0-6.303,5.339-8.935c5.339-2.633,25.805-13.311,28.475-14.794c2.669-1.483,2.373-1.409,3.485-2.002
				c1.112-0.593,2.54-1.835,2.762,0.389c0.222,2.224,1.557,19.632,1.613,21.245c-4.115,0.222-9.176,0.445-9.176,0.445
				s-1.207-14.758-2.039-18.284"/>
			<path fill="none" stroke="#D0D2D3" stroke-miterlimit="10" d="M586.819,274.541l-2.132,1.594c0,0,4.227,2.336,6.785,3.337
				c2.558,1.001,5.506,0.779,8.398,0.779c2.892,0,21.541-1.224,33.591-3.04c12.05-1.817,54.206-11.182,61.779-14.026"/>
			<path fill="none" stroke="#D0D2D3" stroke-miterlimit="10" d="M701.361,219.522c3.497-0.776,13.409-3.896,16.746-5.524
				s3.499-2.063,4.111-2.833c0,0,5.05-3.319,10.389-5.437c0,0-3.281-5.728-14.905-13.626c-11.623-7.897-21.015-8.62-22.631-9.121
				c-1.617-0.501-15.818-2.619-17.588-2.644"/>
			<path fill="none" stroke="#D0D2D3" stroke-miterlimit="10" d="M624.374,223.985c-0.933-0.289-1.916-0.35-3.296-0.35
				c-3.04,0-9.417-0.445-16.314-2.076c-6.896-1.631-18.092-5.863-22.543-7.415c-3.402-1.186-4.319-1.01-6.989-0.714
				s-3.114,0.32-3.67,0.751c-0.661,0.512-0.667,1.057,0.862,1.946c1.529,0.89,26.408,13.989,30.264,16.458
				c3.856,2.469,5.566,4.237,8.157,5.139c0.721,0.251,3.118,0.823,4.301,0.89"/>
			<path fill="none" stroke="#D0D2D3" stroke-miterlimit="10" d="M516.386,199.413c-0.906,0.633-1.988,1.308-3.349,2.05
				c-4.894,2.669-8.379,4.894-11.197,7.119c-2.818,2.225-5.487,5.413-6.526,7.786c-1.038,2.373-0.816,2.299-2.373,5.042
				c-1.557,2.744-4.9,8.62-5.397,15.073"/>
			<path fill="none" stroke="#D0D2D3" stroke-miterlimit="10" d="M529.907,192.199c0-3.017,0.334-5.77,1.001-7.049
				c-7.282,7.176-6.954,7.594-8.943,9.423"/>
			<path fill="none" stroke="#D0D2D3" stroke-miterlimit="10" d="M571.923,208.107c-6.46,0.326-22.329-0.118-28.261-0.86
				c-4.449-0.556-8.648-1.258-11.032-3.545"/>
			<path fill="none" stroke="#D0D2D3" stroke-miterlimit="10" d="M567.28,208.227c0,0-6.896-13.178-9.566-19.185
				c-2.669-6.006,0.89-8.12,4.338-10.122c3.448-2.002,24.026-11.679,40.376-15.016c16.351-3.337,31.107-3.745,35.63-3.596
				c4.523,0.148,8.824,1.335,10.975,2.373c2.151,1.038,20.244,9.714,29.81,18.909"/>
			<path fill="none" stroke="#D0D2D3" stroke-miterlimit="10" d="M762.361,202.409c-5.895-4.468-24.352-19.039-36.535-23.71
				c-12.183-4.672-16.076-4.116-19.524-2.892c-3.448,1.223-8.573,7.715-8.573,7.715"/>
			<path fill="none" stroke="#D0D2D3" stroke-miterlimit="10" d="M755.742,197.374c1.651-1.361,4.288-4.154,0.592-9.281
				c-3.177-4.407-5.578-7.189-12.326-11.119c-6.748-3.93-6.785-4.097-12.421-5.877c-5.636-1.78-7.891-0.968-10.307-0.519
				c-2.595,0.482-6.386,1.446-14.005,4.864"/>
			<path fill="none" stroke="#D0D2D3" stroke-miterlimit="10" d="M768.883,198.979c0.152,2.299-0.738,4.56-1.554,5.71
				c-0.816,1.149-0.185,4.004,0,6.192c0.185,2.188,0.89,17.945,0.89,18.946c2.299,0.222,4.004,0.297,5.228,0.667
				c1.224,0.371,7.638,2.41,1.965,5.858c-5.673,3.448-8.787,5.079-14.497,7.341c-5.71,2.262-10.826,3.675-10.826,3.675"/>
			<path fill="none" stroke="#D0D2D3" stroke-miterlimit="10" d="M604.71,233.941c5.155,0.372,19.059-0.518,21.617-0.629
				c2.558-0.111,3.393-1.891,2.836-3.393c-0.556-1.502-2.909-5.081-4.791-5.933"/>
			<path fill="none" stroke="#D0D2D3" stroke-miterlimit="10" d="M735.366,172.366c-0.738,0.585-0.368,0.956,1.338,1.994
				c1.706,1.038,7.678,4.824,9.417,7.786c2.744,4.672,2.178,8.074,2.127,9.747"/>
			<path fill="none" stroke="#D0D2D3" stroke-miterlimit="10" d="M697.728,217.931c-5.108,0.365-16.251,2.145-20.245,3.813
				c-5.329-1.112-43.481-7.373-52.49-7.746c-9.01-0.374-3.17-0.262-6.507-0.262s-9.232-0.556-12.847-3.448
				c-3.615-2.892-6.753-7.143-6.753-7.143"/>
			<path fill="none" stroke="#D0D2D3" stroke-miterlimit="10" d="M547.451,223.987c3.018-5.913,5.131-8.63,7.467-10.775
				c2.336-2.145,8.008-2.479,14.126-2.812c6.118-0.334,17.018-1.001,20.577-1.001c3.559,0,6.229,0.222,11.457,2.002
				c5.228,1.78,20.318,7.897,29.884,16.202c9.566,8.305,7.319,6.429,7.319,6.429"/>
			<path fill="none" stroke="#D0D2D3" stroke-miterlimit="10" d="M560.886,205.672c-3.558-7.758-5.387-12.737-8.007-18.112
				c-2.892-5.932-6.525-6.822-10.307-5.858c-3.695,0.942-9.983,4.15-12.496,6.994"/>
			<path fill="none" stroke="#D0D2D3" stroke-miterlimit="10" d="M531.986,193.904c1.846-4.217,3.946-8.199,5.369-10.179"/>
			<path fill="none" stroke="#D0D2D3" stroke-miterlimit="10" d="M645.328,161.384c-7.544-2.447-10.955-3.411-20.298-4.004
				c-9.343-0.593-21.755,1.159-27.956,2.41c-4.348,0.877-19.91,4.227-23.247,5.117c-3.337,0.89-12.124,3.281-25.027,8.453
				c-8.133,3.26-14.46,8.676-17.893,11.79"/>
			
				<ellipse transform="matrix(0.9687 -0.2483 0.2483 0.9687 -46.4873 127.5604)" fill="none" stroke="#D0D2D3" stroke-miterlimit="10" cx="482.407" cy="248.056" rx="6.56" ry="22.314"/>
			<path fill="none" stroke="#D0D2D3" stroke-miterlimit="10" d="M572.381,289.583c15.894-2.137,17.5-2.584,20.466-3.4
				c2.966-0.816,3.782-4.555,4.078-5.911"/>
			<path fill="none" stroke="#D0D2D3" stroke-miterlimit="10" d="M505.591,267.626c-0.206,0.942-0.72,3.304-2.782,3.871
				c-2.062,0.567-3.045,0.847-14.226,2.364"/>
			<path fill="none" stroke="#D0D2D3" stroke-miterlimit="10" d="M672.583,262.376c-2.709-1.535-3.488-2.203-4.099-5.039
				c-0.612-2.836-3.393-16.796-3.393-16.796s-7.23,1.279-8.509,1.668c-1.279,0.389-2.391,1.557-3.059,3.615
				c-0.667,2.058-3.003,12.625-3.337,13.959c-0.334,1.335,0.311,7.011,5.398,6.023"/>
			<path fill="none" stroke="#D0D2D3" stroke-miterlimit="10" d="M516.703,198.671c-4.332,1.283-9.173,2.616-13.951,3.571
				c-5.191,1.038-9.343,1.705-12.458,1.928c-3.114,0.223-10.381,0.742-13.125,2.076c-2.744,1.335-7.193,5.265-7.044,14.831
				c0.148,9.566,1.965,19.272,3.949,24.986"/>
			<path fill="none" stroke="#D0D2D3" stroke-miterlimit="10" d="M520.528,206.55c-0.995,0-1.536-0.09-1.926-0.545
				c-0.703-0.82-2.113-3.17-2.336-5.339c-0.222-2.169,1.724-3.921,4.801-5.617c2.644-1.457,5.487-2.558,7.267-2.892
				c1.78-0.334,2.947,0.556,3.652,1.747c0,0,2.698,3.425,1.288,7.058"/>
			<path fill="none" stroke="#D0D2D3" stroke-miterlimit="10" d="M563.928,208.18c-2.346-2.379-5.061-4.232-11.179-5.511
				c-6.118-1.279-14.627-1.947-17.352-1.835c-2.725,0.111-4.894,0.389-7.286,0.89c-2.391,0.501-5.028,0.99-7.564,1.835
				c-2.002,0.667-1.093,3.402,0.948,3.082s9.989-2.564,11.028-3.045c1.039-0.482,1.029-1.26,1.312-1.538
				c0.283-0.278,5.003-0.167,7.843,0.389c2.84,0.556,14.238,3.296,18.357,5.781"/>
			<path fill="none" stroke="#D0D2D3" stroke-miterlimit="10" d="M752.709,214.46c1.366,5.449,3.312,13.068,4.202,16.294
				c0.89,3.226,1.318,4.357,2.605,5.21"/>
			<path fill="none" stroke="#D0D2D3" stroke-miterlimit="10" d="M750.285,215.728c0,0,1.732,8.574,2.01,13.079
				c0.278,4.505,0.316,9.106-0.426,10.393"/>
			<path fill="none" stroke="#D0D2D3" stroke-miterlimit="10" d="M671.375,175.548c6.749-4.821,14.386-10.827,15.944-12.088
				c3.114-1.187,4.004-1.335,4.004-1.335l-17.72,15.05"/>
			<path fill="none" stroke="#D0D2D3" stroke-miterlimit="10" d="M683.431,166.519c-1.267-1.279-2.416-3.8-2.713-5.914
				c-0.297-2.113-0.035-3.727,0.148-4.264c0.26-0.76,0.76-1.965,3.782-1.446c2.367,0.407,5.969,1.891,7.415,2.892
				c1.446,1.001,2.632,2.855-0.741,4.338"/>
			<path fill="none" stroke="#D0D2D3" stroke-miterlimit="10" d="M556.85,244.969c0.647-4.528,2.387-7.693,5.039-8.372
				c0.141-0.036,0.283-0.065,0.426-0.086"/>
			<path fill="none" stroke="#D0D2D3" stroke-miterlimit="10" d="M560.165,266.789c-2.021-3.91-3.177-8.844-3.067-11.067"/>
			<path fill="none" stroke="#D0D2D3" stroke-miterlimit="10" d="M574.408,278.725c-0.47,0.345-0.981,0.593-1.531,0.734
				c-2.111,0.541-4.472-0.575-6.732-2.898"/>
			<path fill="none" stroke="#D0D2D3" stroke-miterlimit="10" d="M559.055,246.599c0.402-3.384,1.54-5.694,3.328-6.153
				c0.302-0.077,0.613-0.1,0.931-0.07"/>
			<path fill="none" stroke="#D0D2D3" stroke-miterlimit="10" d="M561.601,264.108c-1.075-1.671-2.547-5.981-2.149-8.243"/>
			<path fill="none" stroke="#D0D2D3" stroke-miterlimit="10" d="M572.537,275.287c-0.328,0.269-0.688,0.458-1.079,0.558
				c-1.584,0.406-3.419-0.707-5.194-2.893"/>
			<path fill="none" stroke="#D0D2D3" stroke-miterlimit="10" d="M560.881,247.949c0.343-1.621,0.986-2.681,1.91-2.918
				c0.525-0.135,1.098,0.007,1.693,0.385"/>
			<path fill="none" stroke="#D0D2D3" stroke-miterlimit="10" d="M562.856,262.075c-1.254-1.418-1.896-4.533-1.847-6.116"/>
			<path fill="none" stroke="#D0D2D3" stroke-miterlimit="10" d="M570.33,271.233c-0.217,0.195-0.457,0.329-0.721,0.396
				c-0.971,0.249-2.106-0.448-3.241-1.833"/>
			<path fill="none" stroke="#D0D2D3" stroke-miterlimit="10" d="M490.43,266.114c-0.486,0.962-1.118,1.581-1.892,1.779
				c-3.559,0.912-8.766-7.408-11.631-18.584c-2.865-11.176-2.303-20.975,1.256-21.888c0.551-0.141,1.142-0.061,1.758,0.217"/>
			<path fill="none" stroke="#D0D2D3" stroke-miterlimit="10" d="M477.317,235.732c0.25-1.957,0.843-3.221,1.772-3.459
				c0.371-0.095,0.773-0.021,1.196,0.203"/>
			<path fill="none" stroke="#D0D2D3" stroke-miterlimit="10" d="M480.124,253.478c-0.511-1.445-0.985-3.001-1.404-4.635
				c-0.241-0.94-0.454-1.866-0.638-2.772"/>
			<path fill="none" stroke="#D0D2D3" stroke-miterlimit="10" d="M488.259,261.886c-0.308,0.719-0.723,1.174-1.244,1.307
				c-0.724,0.186-1.57-0.274-2.457-1.241"/>
			<path fill="none" stroke="#D0D2D3" stroke-miterlimit="10" d="M479.404,238.571c0.174-1.473,0.603-2.422,1.285-2.597
				c0.271-0.07,0.567-0.012,0.878,0.158"/>
			<path fill="none" stroke="#D0D2D3" stroke-miterlimit="10" d="M481.638,252.138c-0.417-1.16-0.805-2.42-1.146-3.749
				c-0.177-0.688-0.333-1.367-0.47-2.031"/>
			<path fill="none" stroke="#D0D2D3" stroke-miterlimit="10" d="M487.544,258.205c-0.223,0.537-0.525,0.877-0.906,0.974
				c-0.539,0.138-1.172-0.223-1.838-0.976"/>
			<path fill="none" stroke="#D0D2D3" stroke-miterlimit="10" d="M481.645,241.619c0.151-0.611,0.402-1,0.753-1.09
				c0.174-0.045,0.363-0.013,0.56,0.087"/>
			<path fill="none" stroke="#D0D2D3" stroke-miterlimit="10" d="M483.069,250.874c-0.338-0.845-0.65-1.798-0.911-2.818
				c-0.125-0.486-0.232-0.964-0.322-1.429"/>
			<path fill="none" stroke="#D0D2D3" stroke-miterlimit="10" d="M486.578,253.94c-0.148,0.328-0.344,0.536-0.589,0.599
				c-0.28,0.072-0.597-0.054-0.93-0.344"/>
		</g>
		<g>
			<path fill="none" stroke="#D0D2D3" stroke-width="0.5" stroke-miterlimit="10" d="M1214.62,0.578
				c-0.607,0.126-450.05,114.553-476.062,121.018c-23.869,5.932-39.153,16.017,5.784,13.348
				c44.203-2.626,230.04-36.678,264.472-42.025c0.572-0.089,699.845-117.405,700.332-117.478"/>
			<path fill="none" stroke="#D0D2D3" stroke-width="0.5" stroke-miterlimit="10" d="M720.11,160.075
				c0.555,3.287,8.977,6.44,29.979,8.83c36.971,4.206,203.83-0.875,262.031-5.183c7.461-0.552,881.171-56.304,884.558-56.809"/>
			
				<line fill="none" stroke="#D0D2D3" stroke-width="0.5" stroke-miterlimit="10" x1="715.535" y1="131.94" x2="720.081" y2="160.081"/>
			<path fill="none" stroke="#D0D2D3" stroke-width="0.5" stroke-miterlimit="10" d="M1045.157,9.89
				c-3.233,0.892-6.57,3.037-9.057,5.183c-1.843,1.591-4.624,3.049-6.212,4.805c-0.927,1.024-1.255,2.535-2.407,3.566
				c-0.967,0.865-2.279,1.208-3.13,2.239c-0.803,0.973-0.972,2.054-1.927,2.945c-1.042,0.973-2.4,1.378-3.523,2.213
				c-1.748,1.3-3.169,2.898-4.745,4.48c-2.668,2.679-4.955,2.609-8.499,3.513c-2.348,0.599-4.49,1.834-6.689,2.861
				c-2.738,1.278-3.437,2.523-5.38,4.638c-1.498,1.631-2.411,1.502-4.487,1.599c-4.14,0.193-7.709-0.998-11.7-0.786
				c-3.519,0.187-9.25,1.121-12.556,2.931c-3.354,1.837-5.853,4.591-9.188,6.387c-3.695,1.991-6.43,2.31-10.764,2.043
				c-2.399-0.148-2.482-0.912-4.481-1.875c-0.816-0.393-1.917-0.343-2.749-0.75c-0.519-0.254-1.19-1.085-1.758-1.242
				c-4.699-1.295-4.734,4.407-7.549,6.199c-1.486,0.946-4.118,0.171-5.507-0.395c-2.538-1.033-0.948-0.89-2.368-2.868
				c-0.89-1.238-3.641-2.781-5.075-3.382c-2.285-0.958-3.47-0.156-5.431,1.157c-2.037-1.413-4.873-2.709-7.063-3.712
				c-3.006-1.377-5.867,0.303-8.865-0.355c-2.496-0.548-2.813-3.556-5.149-4.112c-1.629-0.388-3.198,1.232-4.827,1.383
				c-6.299,0.582-8.812-6.682-15.99-4.821c-8.229,2.134-16.292,4.949-24.041,8.445c-5.592,2.523-7.187,1.252-13.501,1.172
				c-5.874-0.074-11.351,2.342-16.734,3.315c-2.751,0.497-12.811-1.458-14.512,0.154c-2.608,2.472,1.52,4.652,1.083,7.205
				c-0.454,2.656-1.947,3.13-3.388,5.158c-3.94,5.543-6.726,4.234-11.845,6.839c-3.921,1.995-7.202,5.395-10.645,8.021
				c-1.279,0.976-3.076,0.193-4.232,1.141c-1.033,0.847,0.246,2.769-0.604,3.4c-1.797,1.332-3.367,1.718-5.389,2.619
				c-2.39,1.066-5.34,1.301-7.677,2.333c-1.795,0.793-3.684,3.272-4.955,3.72c-5.629,1.983-12.169-1.048-17.883-1.864
				c-5.26-0.752-12.499,0.606-17.196-1.888c-0.177,0.182-0.356,0.362-0.538,0.54c1.054,1.982,1.384,4.309,0.952,6.586
				c-7.181,1.901-11.426-1.471-15.885-5.074c-2.262-1.827-8.697-7.48-11.263-7.552c-6.855-0.194-1.942,5.821-4.219,10.071
				c-2.289,4.272-9.33,2.869-9.593,8.71c-0.03-0.253,0.192,0.235,0.203,0.32c-0.254,0.037-0.181-0.39-0.188-0.425
				c-0.451,0.239-5.126,1.592-7.024,1.519c-2.767-0.107-5.59-2.174-9.324-2.147c-3.719,0.027-3.702,2.092-7.524,1.533
				c-2.532-0.37-2.528-3.52-6.168-2.9c-0.263,4.206-0.388,7.366-3.492,10.206c-3.334,3.051-7.179,1.972-11.226,4.507
				c1.412,1.744,1.018,3.427,1.615,5.253c-3.433,0.794-7.332,0.391-10.543,0.469c-3.487-5.413-10.689-3.808-15.249-8.525
				c-2.223-2.299-1.256-6.079-6.124-6.54c-3.848-0.365-7.002,1.725-6.157,5.99c-7.695-4.004-2.582,9.632-6.57,13.081
				c0.014-0.009,0.037-0.043,0.032-0.039c-0.015,0.01,0.029-0.027,0.032-0.03c-7.118,4.921-10.885,13.868-21.773,12.363
				c-2.837,3.115-9.215,6.336-12.341,1.614c0.003,0.001,0.058,0.083,0.061,0.084c-2.36-0.639-5.429-0.312-8.032-0.048
				c-0.176,0.171-0.362,0.333-0.556,0.484c2.276,3.92,3.416,5.366-0.101,8.558c-2.958,2.685-7.684,2.861-10.074-0.667
				c5.666-7.213-1.364-13.694-8.611-10.309c-2.126-1.241-4.142-3.381-5.907-4.986c0.236,0.856,0.083,2.198,0.319,3.185
				c-9.155,4.318-15.987-4.694-20.552-11.795c-1.724-0.191-3.773,0.329-5.124,1.386c5.038,6.312-0.752,11.052-0.718,16.83
				c-2.378,1.33-5.312,2.065-7.79,2.875c-0.349,2.018-0.255,5.26,0.291,7.388c-4.817,0.363-15.134,2.787-19.266,1.485
				c-4.815-1.517-6.197-7.538-12.56-4.607c1.047,5.756-8,3.418-12.013,5.389c0.603,8.702-5.786,5.974-9.858,11.195
				c0.732,0.482,1.285,1.25,1.798,1.665c-2.92,0.256-6.2,2.055-8.869,2.172c-2.829,0.124-6.054-2.273-8.381-1.698
				c-3.25,0.802-3.555,4.433-6.137,5.72c-2.584,1.288-6.769,0.877-9.507,1.319c-6.336,1.024-11.069,1.204-17.87,1.483
				c-5.932,0.243-11.625,3.034-17.401,2.981c-0.006-0.012,0.093,0.055,0.084,0.055c-3.018-5.449-11.312-1.146-14.144-6.407
				c0.334-0.153,1.411-1.025,1.9-1.335c-2.944-0.432-4.599-4.844-7.628-4.486c-2.976,0.352-2.739,4.614-3.851,6.523
				c-0.891,1.528-0.067,3.727-2.484,4.534c-2.754,0.919-1.74-2.485-3.841-2.731c-3.014-0.353-5.016-2.141-6.725,1.203
				c5.538,6.026,3.191,10.418-5.023,9.659c-2.488,1.567-1.6,4.163-2.77,5.649c-2.544,3.23-1.167,2.88-6.706,2.894
				c-5.465,0.013-11.061-1.429-16.13-1.888c-4.165-0.377-11.195,0.37-14.062,3.374c-0.992,1.04-0.454,3.423-1.452,5.171
				c-1.51,2.645-4.689,2.067-4.642,6.055c-9.582,2.5-20.594-2.613-27.111,3.634c-2.985,2.861-2.933,5.182-8.194,7.123
				c-4.719,1.741-7.128,2.603-11.675,0.002c0.029,0.047,0.045,0.023,0.088,0.048c-0.314,0.08-0.616,0.037-0.906-0.127
				c0.087-0.301-0.373-1.008-0.515-1.221c0.396-0.636,0.708-1.343,1.1-2c-2.245-3.437-6.815-3.67-9.896-5.526
				c-6.849-4.126-1.656-3.648-2.852-9.155c-1.593-7.33-7.187-2.446-11.377-2.642c-2.631-0.123-10.86-7.095-10.744,0.521
				c-8.447,1.171-4.503,5.693-1.983,10.641c-2.21,1.044-4.052,2.047-6.478,2.936c-2.878,10.584-5.483,13.921-17.142,13.853
				c-0.083,0.58-0.593,1.862-0.619,2.015c-2.98,2.914-6.751,3.538-10.785,4.036c-0.012,0.022,0.09-0.012,0.084-0.011
				c-5.032,8.744-8.479,13.534-18.369,17.062c-7.055-3.552-15.464-5.469-22.039-7.687c-3.987-1.346-8.205-4.676-12.695-4.058
				c-3.645,0.502-6.346,4.046-9.829,4.85c-4.31,0.994-9.047-2.487-13.362,0.689c-2.376,1.748-1.322,3.728-2.802,5.171
				c-1.158,1.129-3.168,0.956-3.986,1.989c-3.547,4.475-2.872,6.036-8.691,7.356c-3.567,0.809-7.404,0.619-10.643,1.666
				c0.193,0.035-0.944,0.05-0.736,0c-5.786-2.713-21.469,2.218-22.084-6.241c-4.754-1.768-11.796,1.171-10.68,7.146
				c-5.339,0.926-5.138,6.96-7.925,9.962c-3.063,3.299-7.793,4.536-11.997,5.45c-4.803,1.044-7.99-0.647-11.194,2.855
				c-1.621,1.771,0.868,2.959-1.501,5.202c-0.517,0.489-3.954,1.661-4.804,1.839c-3.098,0.649-8.028,1.32-11.582,0.648
				c-3.538-0.669-6.072-3.926-9.472-2.986c-2.834,0.783-4.39,6.855-8.843,6.54c-5.053-0.358-5.25-5.852-11.911-3.27
				c3.367,7.971-10.404,9.085-8.377,15.233c-1.73,2.338-5.056,7.306-7.094,8.527c-5.388,3.229-3.974-1.038-8.623-0.534
				c-6.757,0.731-1.444,5.551-6.152,8.588c-1.162,0.75-9.06-0.583-10.964-0.813c-0.816,2.061-1.567,4.146-2.253,6.255"/>
			<path fill="none" stroke="#D0D2D3" stroke-width="0.5" stroke-miterlimit="10" d="M716.271,136.495
				c-13.193,3.381-44.16,11.334-83.935,21.579"/>
			<path fill="none" stroke="#D0D2D3" stroke-width="0.5" stroke-miterlimit="10" d="M768.007,196.375
				c110.219,0.283,248.101-1.98,329.076-4.249c0.473-0.013,1088.851-8.426,1089.32-8.44"/>
			<path fill="none" stroke="#D0D2D3" stroke-width="0.5" stroke-miterlimit="10" d="M716.763,139.54
				c-9.791,3.411-40.726,12.738-68.48,22.691"/>
			<path fill="none" stroke="#D0D2D3" stroke-width="0.5" stroke-miterlimit="10" d="M527.809,188.26
				c-91.092,25.685-186.33,54.669-213.258,69.685c-72.228,40.278-59.894,118.945-4.895,414.945"/>
			<path fill="none" stroke="#D0D2D3" stroke-width="0.5" stroke-miterlimit="10" d="M1252.66-5.873
				c-0.223,0.054-304.557,76.092-304.78,76.146c-87.578,21.164-181.849,45.857-206.736,52.042
				c-22.746,5.653-37.373,12.963,5.45,10.419c42.496-2.524,221.651-38.911,252.147-43.61
				c0.235-0.036,782.931-136.118,783.148-136.151"/>
			<path fill="none" stroke="#D0D2D3" stroke-width="0.5" stroke-miterlimit="10" d="M781.173,128.459
				c8.926-4.707,105.757-29.753,168.276-45.46c106.401-26.732,338.827-90.767,340.807-91.208"/>
			<path fill="none" stroke="#D0D2D3" stroke-width="0.5" stroke-miterlimit="10" d="M471.293,213.235
				c-22.715,8.462-40.12,16.308-47.933,22.729c-16.218,13.328-17.155,29.959,5.242,48.964
				C530.155,371.102,835.654,457.956,959.682,502"/>
			<path fill="none" stroke="#D0D2D3" stroke-width="0.5" stroke-miterlimit="10" d="M474.955,207.726
				c-12.162,3.695-20.588,6.302-23.592,7.303c-33.282,11.092-107.892,25.805-66.07,97.882
				c36.608,63.091,159.88,189.183,190.047,219.641c4.296,4.338,137.984,131.672,137.984,131.672"/>
			<path fill="none" stroke="#D0D2D3" stroke-width="0.5" stroke-miterlimit="10" d="M716.459,137.952
				c-17.46,4.475-44.088,12.175-76.052,21.382"/>
			<path fill="none" stroke="#D0D2D3" stroke-width="0.5" stroke-miterlimit="10" d="M767.994,224.1
				c332.128,13.887,1179.926,30.091,1354.151,34.498"/>
		</g>
		<path fill="none" stroke="#D0D2D3" stroke-width="0.5" stroke-miterlimit="10" d="M490.43,273.608
			c0,0,474.727,100.463,550.227,95.463"/>
		<path fill="none" stroke="#D0D2D3" stroke-width="0.5" stroke-miterlimit="10" d="M593.423,285.976
			c149.142,24.378,435.949,69.575,491.234,65.914"/>
		<path fill="none" stroke="#D0D2D3" stroke-width="0.5" stroke-miterlimit="10" d="M503.532,271.074c0,0,21.576,3.663,56.826,9.486
			"/>
		<path fill="none" stroke="#D0D2D3" stroke-width="0.5" stroke-miterlimit="10" d="M735.014,254.223
			c0,0,340.915,40.36,416.415,35.36"/>
		<path fill="none" stroke="#D0D2D3" stroke-width="0.5" stroke-miterlimit="10" d="M710.795,260.182
			c0,0,340.915,40.36,416.415,35.36"/>
		<path fill="none" stroke="#D0D2D3" stroke-width="0.5" stroke-miterlimit="10" d="M484.558,271.463
			c-48.234-14.268-29.026-37.149-14.437-43.573"/>
		<path fill="none" stroke="#D0D2D3" stroke-width="0.5" stroke-miterlimit="10" d="M480.023,264.195
			c-17.615-7-30.532-19.305-9.418-35.186"/>
	</g>
</g>
</svg>
