<?xml version="1.0" encoding="iso-8859-1"?>
<!-- Generator: Adobe Illustrator 19.1.0, SVG Export Plug-In . SVG Version: 6.00 Build 0)  -->
<svg version="1.1" id="Layer_1" xmlns="http://www.w3.org/2000/svg" xmlns:xlink="http://www.w3.org/1999/xlink" x="0px" y="0px"
	 viewBox="0 0 338.537 73.458" style="enable-background:new 0 0 338.537 73.458;" xml:space="preserve">
<path style="fill:#FFFFFF;" d="M61.989,10.068c0.352-0.74,0.341-0.744,2.207-5.228c-4.465-0.537-6.893-0.925-10.805-0.85
	C48.391,1.439,42.728,0,36.729,0C16.443,0,0,16.444,0,36.729c0,20.285,16.443,36.729,36.729,36.729
	c20.285,0,36.729-16.444,36.729-36.729C73.457,26.23,69.052,16.762,61.989,10.068"/>
<path id="_x35__24_" style="fill:#CD3128;" d="M59.319,15.162c-0.067-0.07-0.161-0.109-0.258-0.106
	c-0.097,0.003-0.188,0.047-0.251,0.122c-1.495,1.78-3.251,3.33-5.23,4.604c-3.833,2.468-8.276,3.772-12.845,3.772
	c-8.622,0-13.446-4.186-17.484-7.279c-0.085-0.065-0.135-0.167-0.135-0.273c0.001-0.107,0.051-0.208,0.137-0.272
	c6.134-4.621,11.235-7.639,16.313-9.451c0.151-0.054,0.245-0.206,0.225-0.366c-0.021-0.16-0.149-0.283-0.309-0.297
	c-0.907-0.08-1.825-0.122-2.752-0.122c-17.251,0-31.235,13.985-31.235,31.235c0,9.516,4.254,18.037,10.965,23.766
	c0.088,0.075,0.206,0.101,0.316,0.068c0.111-0.031,0.198-0.116,0.231-0.226l1.274-4.066c0.054-0.169,0.226-0.27,0.399-0.232
	c16.713,3.65,23.876-5.43,22.698-11.013c-1.007-4.766-8.815-9.004-20.342-2.552c-0.089,0.049-0.195,0.056-0.288,0.022
	c-0.033-0.013-0.064-0.031-0.092-0.053l-0.035-0.029c-0.103-0.078-0.152-0.209-0.127-0.335l3.908-19.87v0
	c0.021-0.111,0.097-0.204,0.2-0.248c0.104-0.045,0.223-0.036,0.318,0.025c1.128,0.715,4.369,2.76,7.9,4.9
	c0.116,0.071,0.18,0.205,0.161,0.34c-0.121,0.864-0.556,3.996-0.791,5.274c-0.023,0.116,0.018,0.233,0.104,0.313
	c0.085,0.079,0.206,0.109,0.321,0.079c19.213-5.183,23.226,6.92,22.737,12.681C54.245,58.642,39.87,65.556,27.031,65.728
	c-0.167,0.002-0.309,0.125-0.333,0.289c-0.025,0.166,0.072,0.326,0.231,0.378c3.083,1.017,6.375,1.569,9.8,1.569
	c17.25,0,31.234-13.984,31.234-31.235C67.963,28.364,64.673,20.769,59.319,15.162"/>
<path style="fill:#60AE54;" d="M28.691,15.995c6.257-0.558,12.61-1.104,18.455-2.871c4.278-1.294,8.165-3.541,12.139-5.43
	C48.741,6.456,37.749,9.128,28.691,15.995"/>
<path style="fill:#88BC50;" d="M28.687,15.999c10.384,7.86,25.552,3.869,30.615-8.303c-0.005,0-0.01-0.001-0.016-0.002
	c-9.403,4.469-19.759,7.334-30.595,8.301C28.689,15.996,28.688,15.999,28.687,15.999"/>
<path style="fill:#CD3128;" d="M187.151,28.69c-3.944,0-6.317,2.568-8.267,5.614h-0.092c0-3.188-1.283-5.614-4.894-5.614
	c-4.272,0-6.601,3.235-8.123,5.899h-0.091c0.25-0.978,0.545-2.422,0.757-3.655c0.068-0.404-0.044-0.818-0.308-1.13
	c-0.265-0.312-0.653-0.495-1.064-0.495h-4.328l-3.905,21.653c-0.069,0.373,0.035,0.758,0.281,1.057
	c0.243,0.291,0.605,0.46,0.986,0.46h4.588l0.333-1.903c2.278-12.894,5.414-16.463,7.882-16.463c1.802,0,1.993,1.711,1.569,3.998
	l-2.348,12.674c-0.077,0.417,0.036,0.85,0.308,1.178c0.271,0.326,0.674,0.517,1.102,0.517h4.448l0.333-1.903
	c2.236-12.799,5.37-16.463,7.934-16.463c1.709,0,1.946,1.573,1.518,3.998l-2.351,12.944c-0.065,0.35,0.03,0.714,0.259,0.991
	c0.229,0.273,0.565,0.434,0.924,0.434h4.635l2.612-14.702c0.238-1.191,0.333-2.235,0.333-3.188
	C192.183,30.639,190.333,28.69,187.151,28.69z M212.961,23.795l2.006,0.35c0.588,0.07,1.083,0.156,1.28-0.77l0.71-2.508
	c0.177-0.771-0.065-0.949-0.804-1.07l-1.873-0.334c-0.419-0.039-1.059-0.206-1.279,0.72l-0.731,2.573
	C212.118,23.357,212.287,23.695,212.961,23.795z M153.963,29.309h-8.842c-6.551,0-10.921,2.807-10.921,8.04
	c0,2.759,1.946,4.522,3.896,4.76v0.044c-0.761,0.291-1.617,1.24-2.521,2.331c-1.611,2.048-2.755,3.383-3.795,3.383
	c-0.196,0-0.354,0.138-0.382,0.329l-0.526,3.656c-0.026,0.161,0.021,0.321,0.128,0.439c0.1,0.125,0.256,0.191,0.412,0.191h1.885
	c2.992,0,4.085-1.188,7.03-4.904c2.278-2.993,3.134-3.946,4.51-3.946h0.999l-1.453,8.205c-0.03,0.16,0.017,0.325,0.12,0.445
	c0.105,0.13,0.255,0.201,0.42,0.201h5.107c0.264,0,0.491-0.191,0.54-0.452l3.935-22.073c0.03-0.161-0.015-0.325-0.118-0.45
	C154.277,29.379,154.127,29.309,153.963,29.309z M146.592,39.397h-3.23c-1.994,0-2.939-0.667-2.939-2.049
	c0-2.279,1.423-3.422,4.176-3.422h2.992L146.592,39.397z M138.562,18.596c24.58-1.021,63.462,3.54,63.462,3.54
	c0.496,0.068,0.937-0.144,1.071-0.581l0.398-1.226l0.009-0.013l0.67-2.092c0.043-0.13,0.026-0.272-0.047-0.394
	c-0.072-0.113-0.193-0.191-0.329-0.212c-4.821-0.641-40.308-5.254-66.107-4.6c-24.268,0.619-44.663,5.418-50.11,6.856
	c-0.424,0.108-0.748,0.455-0.83,0.888l-0.588,3.132c-0.03,0.16,0.022,0.316,0.138,0.424c0.113,0.113,0.276,0.16,0.427,0.125
	c4.411-0.974,10.52-2.014,18.61-3.024l-5.392,29.957c-0.135,0.524-0.135,1.117,0.813,1.117h5.24c0.346,0,0.796-0.068,0.896-0.909
	l5.075-29.182c0.014-0.043,0.347-1.615,2.055-2.006l0.025-0.004c2.188-0.221,5.967-0.463,8.281-0.653l-5.613,31.719
	c-0.203,1.079,0.359,1.04,0.765,1.035h5.479c0.458-0.012,1.072-0.073,1.258-1.095l5.275-30.381h0.012c0,0,0.333-1.582,2.027-1.976
	C134.169,18.865,135.877,18.713,138.562,18.596z M206.512,22.885l2.253,0.299c0.608,0.069,1.119,0.169,1.331-0.789l0.738-2.621
	c0.182-0.819-0.064-1.01-0.838-1.139l-2.11-0.282c-0.432-0.043-1.094-0.199-1.328,0.754l-0.765,2.676
	C205.638,22.421,205.811,22.76,206.512,22.885z M215.354,34.689c0-3.807-2.655-6-7.073-6c-7.41,0-13.3,6.424-13.3,15.083
	c0,5.47,3.04,9.278,8.88,9.278c4.562,0,7.459-1.807,9.309-3.33l-2.422-4.094c-1.469,1.239-3.467,2.43-5.888,2.43
	c-2.563,0-3.515-1.573-3.657-4.237C208.898,42.967,215.354,40.346,215.354,34.689z M201.535,39.87
	c0.809-3.374,2.802-6.376,5.699-6.376c1.474,0,2.183,0.624,2.183,1.906C209.417,37.826,206.235,39.397,201.535,39.87z
	 M233.686,28.69c-4.039,0-6.175,2.759-8.078,6.038h-0.095c0.224-0.839,0.414-1.62,0.588-2.421c0.156-0.732-0.025-1.499-0.493-2.079
	c-0.469-0.58-1.18-0.919-1.923-0.919h-2.965l-6.127,33.544h3.463c1.543,0,2.866-1.105,3.144-2.629l1.371-7.506
	c0.475,0.143,1.523,0.333,3.23,0.333c8.025,0,13.823-6.519,13.823-16.512C239.622,31.782,237.339,28.69,233.686,28.69z
	 M225.799,48.486c-1.328,0-1.994-0.196-2.374-0.287l0.238-1.286c1.755-8.517,4.747-12.848,7.458-12.848
	c1.47,0,2.088,1.382,2.088,3.474C233.21,44.343,229.885,48.486,225.799,48.486z M330.461,28.69c-8.595,0-14.579,6.804-14.579,16.751
	c0,4.759,2.421,7.614,5.984,7.614c3.753,0,6.031-2.807,7.838-6.186h0.095c-0.238,1.014-0.424,2.266-0.558,3.491
	c-0.064,0.542,0.107,1.083,0.471,1.49c0.364,0.399,0.882,0.632,1.423,0.632h3.982c0.047-1.71,0.333-5.518,1.47-11.898l1.95-10.561
	C337.444,29.547,334.595,28.69,330.461,28.69z M331.555,34.875c-1.57,8.662-4.609,12.846-7.126,12.846
	c-1.474,0-2.135-1.138-2.135-3.33c0-6.52,3.42-11.041,7.22-11.041c0.899,0,1.755,0.143,2.231,0.289L331.555,34.875z M307.762,43.348
	c-0.662-1.382-1.327-2.24-1.993-2.901l10.16-11.138h-5.56c-0.96,0-1.877,0.421-2.507,1.149l-7.127,8.229h-1.284l1.383-7.576
	c0.078-0.446-0.038-0.902-0.329-1.252c-0.289-0.347-0.716-0.55-1.167-0.55h-4.443l-4.134,23.17h4.48
	c1.011,0,1.871-0.724,2.049-1.716l1.405-7.845h0.708c1.379,0,2.188,1.473,3.658,4.57c1.661,3.613,2.516,4.991,5.508,4.991h2.421
	l0.857-4.614h-0.523C310.087,47.866,309.189,46.44,307.762,43.348z M282.642,30.739c-0.946,5.898-3.99,9.798-6.885,9.798
	c-1.521,0-2.043-1.095-1.567-3.66l0.744-4.556c0.12-0.75-0.092-1.52-0.585-2.101c-0.488-0.577-1.21-0.91-1.973-0.91h-3.078
	l-1.426,7.855c-0.19,1.042-0.285,1.996-0.285,2.853c0,3.851,1.855,5.995,5.127,5.995c4.135,0,6.792-2.712,8.505-5.618h0.096
	c-0.714,3.525-1.57,8.758-1.951,12.085h5.985c0.1-1.707,0.48-5.515,1.616-11.895l2.041-11.275h-6.127L282.642,30.739z
	 M255.006,28.69c-7.507,0-13.108,6.662-13.108,14.702c0,5.279,3.275,9.658,9.26,9.658c7.696,0,13.014-6.328,13.014-14.701
	C264.171,32.832,260.847,28.69,255.006,28.69z M251.727,48.29c-2.373,0-3.562-1.996-3.562-5.041c0-4.28,2.421-9.799,6.316-9.799
	c2.375,0,3.516,1.808,3.516,4.995C257.997,42.676,255.814,48.29,251.727,48.29z"/>
</svg>
